<svg version="1.1" x="0px" y="0px" width="138.52328683602" height="139.78056479883" xmlns="http://www.w3.org/2000/svg" xmlns:xlink="http://www.w3.org/1999/xlink" xmlns:a="http://ns.adobe.com/AdobeSVGViewerExtensions/3.0/" xml:space="preserve"><g transform="translate(0 0) scale(2.0505174653927 2.0505174653927) rotate(0 33.777641296387 34.084217071533)"><path d="M30.427 5.465c-13.331 0-23.529 10.381-25.846 23.043.833-13.383 11.945-23.982 25.538-23.982 7.35 0 13.97 3.103 18.638 8.063-4.721-3.956-11.687-7.124-18.33-7.124z" fill="#c4cdd3"></path><path d="M66.965 63.194l-9.92-9.92a2.01 2.01 0 00-2.789-.049L51.92 50.89c5.15-5.405 8.318-12.715 8.318-20.771C60.239 13.485 46.753 0 30.119 0S0 13.485 0 30.119c0 9.461 4.364 17.897 11.186 23.419v-4.253C6.241 44.4 3.175 37.619 3.175 30.119c0-14.881 12.063-26.943 26.944-26.943 14.881 0 26.944 12.063 26.944 26.943 0 7.5-3.066 14.281-8.01 19.166v4.25c.408-.33.813-.67 1.203-1.021l2.355 2.356a2.01 2.01 0 00.049 2.788l9.921 9.921a2.016 2.016 0 002.849 0l1.535-1.536a2.014 2.014 0 000-2.849z" fill="#f16623"></path><path d="M13.346 34.887c-.059.821-.162 2.468-.265 4.181.568-1.325 1.235-2.39 1.97-3.261-.023-.359-.045-.681-.062-.92-.152-2.134-.545-2.918-.545-2.918l.677-1.164a3.317 3.317 0 01-1.011.158c-.298 0-.589-.045-.873-.127l.653 1.133s-.392.784-.544 2.918z" fill="#f16623"></path><path d="M18.727 29.953c-.951-.241-1.484-.601-1.781-.888.884-1.141 1.445-2.831 1.445-4.79 0-2.154-1.891-4.22-4.223-4.22-2.333 0-4.224 2.065-4.224 4.22 0 1.866.573 3.586 1.475 4.76-.29.291-.825.668-1.811.918-1.56.396-3.733 1.077-4.631 5.506a25.667 25.667 0 006.228 12.043c.278-3.156.825-5.633 1.56-7.612-.577-3.275-1.131-7.484-.836-10.287.65.621 1.416.991 2.24.991.825 0 1.592-.345 2.242-.943.14 1.387.085 3.095-.087 4.882 1.542-1.281 3.292-1.951 5.073-2.403.209-.053.394-.111.575-.17-1.006-1.383-2.251-1.753-3.245-2.007z" fill="#00223d"></path><path d="M45.25 34.887l-.062.92c.734.871 1.402 1.936 1.97 3.261a497.901 497.901 0 00-.265-4.181c-.152-2.134-.544-2.918-.544-2.918l.653-1.133a3.13 3.13 0 01-.873.127c-.347 0-.685-.055-1.012-.158l.678 1.164s-.393.784-.545 2.918z" fill="#f16623"></path><path d="M50.63 29.953c-.985-.25-1.521-.627-1.812-.918.902-1.174 1.476-2.894 1.476-4.76 0-2.154-1.891-4.22-4.224-4.22-2.332 0-4.223 2.065-4.223 4.22 0 1.959.561 3.649 1.445 4.79-.298.287-.83.646-1.781.888-.995.254-2.24.624-3.244 2.006.181.059.365.117.574.17 1.781.452 3.531 1.122 5.073 2.403-.173-1.787-.228-3.495-.087-4.882.65.599 1.418.943 2.242.943s1.59-.37 2.24-.991c.295 2.803-.26 7.012-.837 10.286.735 1.98 1.282 4.457 1.56 7.613a25.66 25.66 0 006.229-12.043c-.897-4.428-3.071-5.108-4.631-5.505z" fill="#00223d"></path><path d="M30.119 60.239c-.295 0-.587-.014-.881-.022-.209-.914-.739-3.293-1.319-6.382.248-4.175.547-9.106.697-11.179.279-3.903.995-5.339.995-5.339l-1.195-2.072a5.769 5.769 0 001.597.231c.634 0 1.253-.1 1.85-.287l-1.238 2.128s.72 1.436.998 5.339c.148 2.072.448 7.008.696 11.184A174.371 174.371 0 0131 60.217c-.293.009-.585.022-.881.022z" fill="#bb4b16"></path><path d="M38.461 33.631c-1.733-.44-2.716-1.099-3.262-1.622 1.619-2.086 2.646-5.182 2.646-8.768 0-3.942-3.459-7.722-7.727-7.722s-7.728 3.779-7.728 7.722c0 3.416 1.05 6.566 2.703 8.715-.534.531-1.525 1.22-3.317 1.675-3.275.832-8.037 2.342-9.041 14.138v6.94a29.934 29.934 0 0016.502 5.508c-.209-.914-.739-3.293-1.319-6.382-1.159-6.164-2.514-15.134-1.915-20.861 1.192 1.146 2.601 1.829 4.115 1.829 1.518 0 2.929-.638 4.123-1.743.578 5.732-.769 14.646-1.923 20.78a174.371 174.371 0 01-1.319 6.377 29.927 29.927 0 0016.502-5.508v-6.94c-1.002-11.796-5.764-13.306-9.04-14.138z" fill="#00223d"></path></g></svg>